<?xml version="1.0" encoding="utf-8"?>
<!-- Generator: Adobe Illustrator 26.0.1, SVG Export Plug-In . SVG Version: 6.00 Build 0)  -->
<svg version="1.1" id="Layer_1" xmlns="http://www.w3.org/2000/svg" xmlns:xlink="http://www.w3.org/1999/xlink" x="0px" y="0px"
	 viewBox="0 0 800 130.1" style="enable-background:new 0 0 800 130.1;" xml:space="preserve">
<style type="text/css">
	.st0{fill:#2E3856;}
	.st1{fill:#F15A29;}
</style>
<g>
	<g>
		<path class="st0" d="M302.1,40.6V1.7h15.5c8.2,0,12.8,4.8,12.8,11.6c0,6.9-4.7,11.8-12.9,11.8h-10.4v15.4H302.1z M307.1,20.8h9.5
			c5.7,0,8.5-3.2,8.5-7.4c0-4-2.6-7-8.5-7h-9.5V20.8z"/>
		<path class="st0" d="M333.6,33.6c0-7.5,8.4-10.2,17.5-10.9v-0.9c0-3.3-1.8-5.4-6.1-5.4c-4.9,0-6.6,2.7-7.4,5l-4.5-1.5
			c0.9-3.6,4.7-7.5,11.9-7.5c7.4,0,10.8,3.8,10.8,9.5v12.8c0,1.4,0.5,1.8,1.8,1.8h2.7v4h-3.7c-3.8,0-4.8-1.7-5-4.4
			c-1.9,3.2-4.7,5.2-9.1,5.2C337.1,41.3,333.6,38.4,333.6,33.6z M351.1,29v-2.9c-6.8,0.7-12.6,2.5-12.6,7.1c0,2.6,1.8,4.3,5.2,4.3
			C347.3,37.5,351.1,35,351.1,29z"/>
		<path class="st0" d="M364.1,40.6V13.1h4.5V19c0.9-2.3,3.7-6.3,9.1-6.3c1.3,0,2.1,0.1,2.8,0.3v4.8c-0.8-0.1-1.9-0.3-3.1-0.3
			c-6.2,0-8.7,4-8.7,10.6v12.4H364.1z"/>
		<path class="st0" d="M394.5,40.6c-4.7,0-7-2.3-7-6.8V17.1H381v-3.9h6.4V4.6h4.7v8.5h7.6v3.9h-7.6v16.3c0,2.2,1,3.2,3.2,3.2h5.4v4
			H394.5z"/>
		<path class="st0" d="M405.3,40.6V13.1h4.5v4.8c0.5-1.4,3.2-5.6,9.1-5.6c6.8,0,9.6,4.3,9.6,10.4v17.8h-4.7V23.9
			c0-5.2-2.4-7.4-6.2-7.4c-7.3,0-7.7,8-7.7,12v12.1H405.3z"/>
		<path class="st0" d="M434,26.8c0-8.9,5.4-14.5,12.3-14.5c8,0,12.9,6.7,12,15.6h-19.6c0.2,7.1,4,9.4,8,9.4c4.5,0,6.6-3.3,7.4-5.4
			l4.3,1.6c-1.9,4.9-6.2,7.9-11.9,7.9C439,41.3,434,36.2,434,26.8z M453.6,24.2c-0.1-5.3-3.4-8-7.2-8c-3.9,0-7.1,3.1-7.5,8H453.6z"
			/>
		<path class="st0" d="M464.5,40.6V13.1h4.5V19c0.9-2.3,3.7-6.3,9.1-6.3c1.3,0,2.1,0.1,2.8,0.3v4.8c-0.8-0.1-1.9-0.3-3.1-0.3
			c-6.2,0-8.7,4-8.7,10.6v12.4H464.5z"/>
		<path class="st0" d="M482.3,33.5l4.5-1.4c0.7,2.9,2.8,5.4,7.4,5.4c4,0,6.2-1.6,6.2-4.1c0-2.1-1.3-3.6-5.1-4.4l-3.4-0.7
			c-4.5-0.9-8.5-2.7-8.5-7.8c0-4.8,4.5-8.2,10.2-8.2c6.7,0,9.9,3.4,10.9,6.9l-4.2,1.6c-0.6-1.9-2.4-4.7-6.8-4.7
			c-3.8,0-5.6,1.9-5.6,3.9c0,1.9,0.9,3,4.7,3.8l3.4,0.7c3.4,0.8,9.1,2.7,9.1,8.5c0,5-3.9,8.4-11,8.4
			C488.3,41.3,483.4,38.5,482.3,33.5z"/>
		<path class="st0" d="M530.4,40.6h-4.7V17.1h-6.2v-3.9h6.2V9c0-4.9,2.3-7.3,7-7.3h5.9v4h-5.1c-2.2,0-3.2,1-3.2,3.2v4.2h7.3v3.9
			h-7.3V40.6z"/>
		<path class="st0" d="M539.2,26.9c0-8.5,5.7-14.5,13-14.5c7.3,0,12.9,6,12.9,14.5c0,8.6-5.8,14.5-12.9,14.5
			C545,41.3,539.2,35.4,539.2,26.9z M560.3,26.9c0-7-3.4-10.5-8-10.5c-4.7,0-8.1,3.5-8.1,10.5s3.4,10.3,8.1,10.3
			C556.9,37.2,560.3,33.9,560.3,26.9z"/>
		<path class="st0" d="M571.1,40.6V13.1h4.5V19c0.9-2.3,3.7-6.3,9.1-6.3c1.3,0,2.1,0.1,2.8,0.3v4.8c-0.8-0.1-1.9-0.3-3.1-0.3
			c-6.2,0-8.7,4-8.7,10.6v12.4H571.1z"/>
		<path class="st0" d="M302.1,92.8V53.9h16.2c7.8,0,12.4,4.5,12.4,10.5c0,5.8-4,9.3-9.1,10.3c5.1,0.8,6.9,3.4,7.9,8l2.1,9.9H326
			l-1.7-9.5c-0.9-4.9-3.4-6.8-8.7-6.8h-8.5v16.2H302.1z M307.1,72h10.4c4.5,0,7.9-2.2,7.9-6.8s-3.3-6.7-7.9-6.7h-10.4V72z"/>
		<path class="st0" d="M335.3,79c0-8.9,5.4-14.5,12.3-14.5c8,0,12.9,6.7,12,15.6H340c0.2,7.1,4,9.4,8,9.4c4.5,0,6.6-3.3,7.4-5.4
			l4.3,1.6c-1.9,4.9-6.2,7.9-11.9,7.9C340.3,93.5,335.3,88.4,335.3,79z M354.8,76.3c-0.1-5.3-3.4-8-7.2-8c-3.9,0-7.1,3.1-7.5,8
			H354.8z"/>
		<path class="st0" d="M365.7,103.6V65.3h4.5v4.4c1.3-2.4,4.2-5.2,9-5.2c6.3,0,11.3,5.3,11.3,14.5s-4.9,14.5-11.3,14.5
			c-4.9,0-7.6-2.8-8.9-5.2v5.3v9.9H365.7z M385.7,79c0-7.7-3.3-10.4-7.7-10.4c-4.5,0-7.8,3.3-7.8,10.4c0,7,3.3,10.5,7.8,10.5
			C382.4,89.5,385.7,86.6,385.7,79z"/>
		<path class="st0" d="M396.5,92.8V65.3h4.5v5.9c0.9-2.3,3.7-6.3,9.1-6.3c1.3,0,2.1,0.1,2.8,0.3V70c-0.8-0.1-1.9-0.3-3.1-0.3
			c-6.2,0-8.7,4-8.7,10.6v12.4H396.5z"/>
		<path class="st0" d="M414.5,79.1c0-8.5,5.7-14.5,13-14.5c7.3,0,12.9,6,12.9,14.5c0,8.6-5.8,14.5-12.9,14.5
			C420.3,93.5,414.5,87.5,414.5,79.1z M435.5,79.1c0-7-3.4-10.5-8-10.5c-4.7,0-8.1,3.5-8.1,10.5s3.4,10.3,8.1,10.3
			C432.1,89.4,435.5,86.1,435.5,79.1z"/>
		<path class="st0" d="M444.2,79.1c0-9.2,5-14.5,11.3-14.5c4.9,0,7.6,2.8,8.9,5.2v-5.3V53.9h4.7v38.8h-4.6v-4.4
			c-1.3,2.4-4.2,5.2-9,5.2C449.2,93.5,444.2,88.2,444.2,79.1z M464.7,79.1c0-7-3.3-10.5-7.9-10.5c-4.3,0-7.7,2.9-7.7,10.5
			c0,7.7,3.4,10.4,7.7,10.4C461.3,89.5,464.7,86.2,464.7,79.1z"/>
		<path class="st0" d="M476.6,83.2V65.3h4.7V82c0,5.2,2.4,7.3,6,7.3c6.7,0,7.5-7,7.5-11.8V65.3h4.7v27.4H495v-4.9
			c-0.8,1.6-3.4,5.7-9.2,5.7C479.5,93.5,476.6,89.3,476.6,83.2z"/>
		<path class="st0" d="M505.4,79c0-8.5,5.5-14.5,13.1-14.5c6.2,0,10.1,3.7,11.4,7.9l-4.4,1.5c-0.9-2.8-3.1-5.3-7.1-5.3
			c-4.4,0-8.1,3.4-8.1,10.4c0,7,3.6,10.4,8.2,10.4c4.5,0,6.7-3,7.6-6.2l4.4,1.6c-1.7,5-5.8,8.7-12,8.7
			C510.7,93.5,505.4,87.9,505.4,79z"/>
		<path class="st0" d="M545.3,92.8c-4.7,0-7-2.3-7-6.8V69.2h-6.4v-3.9h6.4v-8.5h4.7v8.5h7.6v3.9h-7.6v16.3c0,2.2,1,3.2,3.2,3.2h5.4
			v4H545.3z"/>
		<path class="st0" d="M555.9,60v-6h5v6H555.9z M556,92.8V65.3h4.7v27.4H556z"/>
		<path class="st0" d="M575,92.8l-9.6-27.4h5l5,15.1c1.1,3.3,2.1,6.5,2.7,8l2.6-8l4.8-15.1h4.8l-9.3,27.4H575z"/>
		<path class="st0" d="M592.7,79c0-8.9,5.4-14.5,12.3-14.5c8,0,12.9,6.7,12,15.6h-19.6c0.2,7.1,4,9.4,8,9.4c4.5,0,6.6-3.3,7.4-5.4
			l4.3,1.6c-1.9,4.9-6.2,7.9-11.9,7.9C597.7,93.5,592.7,88.4,592.7,79z M612.3,76.3c-0.1-5.3-3.4-8-7.2-8c-3.9,0-7.1,3.1-7.5,8
			H612.3z"/>
		<path class="st0" d="M630.8,81.1l5.2-1.3c-0.2,6.2,1.7,9.2,5.6,9.2c4,0,5.7-3,5.7-8.7V53.9h5v26.7c0,8.5-3.4,12.9-10.6,12.9
			C634.8,93.5,630.8,88.9,630.8,81.1z"/>
		<path class="st0" d="M659.9,83.2V65.3h4.7V82c0,5.2,2.4,7.3,6,7.3c6.7,0,7.5-7,7.5-11.8V65.3h4.7v27.4h-4.6v-4.9
			c-0.8,1.6-3.4,5.7-9.2,5.7C662.8,93.5,659.9,89.3,659.9,83.2z"/>
		<path class="st0" d="M688.2,85.7l4.5-1.4c0.7,2.9,2.8,5.4,7.4,5.4c4,0,6.2-1.6,6.2-4.1c0-2.1-1.3-3.6-5.1-4.4l-3.4-0.7
			c-4.5-0.9-8.5-2.7-8.5-7.8c0-4.8,4.5-8.2,10.2-8.2c6.7,0,9.9,3.4,10.9,6.9l-4.2,1.6c-0.6-1.9-2.4-4.7-6.8-4.7
			c-3.8,0-5.6,1.9-5.6,3.9c0,1.9,0.9,3,4.7,3.8l3.4,0.7c3.4,0.8,9.1,2.7,9.1,8.5c0,5-3.9,8.4-11,8.4
			C694.2,93.5,689.3,90.6,688.2,85.7z"/>
		<path class="st0" d="M726.2,92.8c-4.7,0-7-2.3-7-6.8V69.2h-6.4v-3.9h6.4v-8.5h4.7v8.5h7.6v3.9h-7.6v16.3c0,2.2,1,3.2,3.2,3.2h5.4
			v4H726.2z"/>
		<path class="st0" d="M736.8,60v-6h5v6H736.8z M737,92.8V65.3h4.7v27.4H737z"/>
		<path class="st0" d="M747.5,79c0-8.5,5.5-14.5,13.1-14.5c6.2,0,10.1,3.7,11.4,7.9l-4.4,1.5c-0.9-2.8-3.1-5.3-7.1-5.3
			c-4.4,0-8.1,3.4-8.1,10.4c0,7,3.6,10.4,8.2,10.4c4.5,0,6.7-3,7.6-6.2l4.4,1.6c-1.7,5-5.8,8.7-12,8.7
			C752.8,93.5,747.5,87.9,747.5,79z"/>
		<path class="st0" d="M775.5,79c0-8.9,5.4-14.5,12.3-14.5c8,0,12.9,6.7,12,15.6h-19.6c0.2,7.1,4,9.4,8,9.4c4.5,0,6.6-3.3,7.4-5.4
			l4.3,1.6c-1.9,4.9-6.2,7.9-11.9,7.9C780.5,93.5,775.5,88.4,775.5,79z M795.1,76.3c-0.1-5.3-3.4-8-7.2-8c-3.9,0-7.1,3.1-7.5,8
			H795.1z"/>
	</g>
	<g id="IPAS_x5F_Logo_x5F_F15A29_00000076567867868098315850000013874265671389679527_">
		<path class="st1" d="M15,13.8H0.5L0.7,0H47v13.8H34.8c-2.1,0-2.8,0.7-2.8,2.7v62.7h14.5l-0.1,13.8H0V79.1h12.2
			c2.1,0,2.8-0.7,2.8-2.7V13.8z"/>
		<path class="st1" d="M78.9,89.9v26.4H96l-0.1,13.8H51.2v-13.8h8.2c2.1,0,2.8-0.7,2.8-2.7V39.7H51.5V26h23l4.2,7l2.7-2.3
			c4.4-3.6,8.9-6.1,16.5-6.1c15.1,0,26.4,10,26.4,33.3c0,21-9.4,36.8-29.3,36.8C88,94.8,82.8,92.7,78.9,89.9z M78.9,39.7v31.9
			c3.2,4,7.6,7.8,14.7,7.8c9.3,0,13.5-5.8,13.5-21c0-13.1-3.2-18.7-13.7-18.7H78.9z"/>
		<path class="st1" d="M194.5,79.8h9.6v13.1h-15.9l-8.4-7.7l-4,3.3c-4.5,3.6-8.6,6.2-16.6,6.2c-14.6,0-26.4-10-26.4-33.3
			c0-21,9.8-36.8,29.3-36.8c10.4,0,17.1,3.8,21.6,8l6.2-8h4.5V79.8z M177.7,79.8V47.3c-3.1-3.8-8.4-7.2-14.1-7.2
			c-9,0-13.9,5.8-13.9,21c0,13.3,3.7,18.7,14.2,18.7H177.7z"/>
		<path class="st1" d="M227.1,94.1c-6.1,0-12.6-0.5-17.3-1.2V79.8h34.8c0.7-1.2,1.1-2.4,1.1-4.1c0-10.1-34.9-4.8-34.9-26.3
			c0-13.8,12.9-24.7,34-24.7c5,0,9.7,0.4,14.5,1.2V39h-31.2c-1.3,1.2-2.1,2.9-2.1,4.6c0,11.2,36,4.6,36,28.1
			C261.9,85.5,251.7,94.1,227.1,94.1z"/>
	</g>
</g>
</svg>
