<svg xmlns="http://www.w3.org/2000/svg" width="234.484" height="106.559" viewBox="0 0 234.484 106.559">
  <g id="Group_349" data-name="Group 349" transform="translate(-126 -100.951)">
    <g id="Layer_1_copy" transform="translate(126 100.951)">
      <path id="Path_60" data-name="Path 60" d="M1125.91,482.023h8.67v-9.782q0-2.78.979-3.852a3.28,3.28,0,0,1,2.554-1.077,2.979,2.979,0,0,1,2.213.8,3.8,3.8,0,0,1,.79,2.714v11.2h8.708V469.078q0-4-2.031-5.942a7.755,7.755,0,0,0-5.568-1.94,11,11,0,0,0-4.133.711,11.66,11.66,0,0,0-3.513,2.354V453.9h-8.67Z" transform="translate(-932.485 -375.922)" fill="#1a4985"/>
      <path id="Path_61" data-name="Path 61" d="M979.239,516.064q2.629,1.59,8.823,1.591a19.8,19.8,0,0,0,6.928-.984,7.919,7.919,0,0,0,3.721-2.654,5.856,5.856,0,0,0,1.184-3.429,5.113,5.113,0,0,0-1.118-3.2,7.008,7.008,0,0,0-3.223-2.24,27.864,27.864,0,0,0-6.43-1.228,14.744,14.744,0,0,1-3.7-.687,1.219,1.219,0,0,1-.852-1.127,1.372,1.372,0,0,1,.672-1.141,3.822,3.822,0,0,1,2.141-.469,4.65,4.65,0,0,1,2.469.622,2.539,2.539,0,0,1,1.063,1.443l8.217-.73a9.056,9.056,0,0,0-2.141-3.173,8,8,0,0,0-3.216-1.732,23.35,23.35,0,0,0-5.975-.558,20.934,20.934,0,0,0-6.107.72,7.819,7.819,0,0,0-3.578,2.175,5.037,5.037,0,0,0-1.3,3.465,4.964,4.964,0,0,0,1.2,3.276,6.561,6.561,0,0,0,2.96,2.038,41.976,41.976,0,0,0,6.271,1.316,19.577,19.577,0,0,1,3.721.8,1.429,1.429,0,0,1,.974,1.3,1.461,1.461,0,0,1-.744,1.244,4.667,4.667,0,0,1-2.7.668,4.805,4.805,0,0,1-2.55-.591,3.834,3.834,0,0,1-1.491-1.967l-8.6.725a7.194,7.194,0,0,0,3.379,4.523" transform="translate(-808.213 -411.096)" fill="#1a4985"/>
      <rect id="Rectangle_33" data-name="Rectangle 33" width="8.674" height="20.364" transform="translate(156.394 85.738)" fill="#1a4985"/>
      <rect id="Rectangle_34" data-name="Rectangle 34" width="8.674" height="5.31" transform="translate(156.394 77.981)" fill="#1a4985"/>
      <path id="Path_62" data-name="Path 62" d="M755.78,464.9h9.744V451.944h12.187v-6.382H765.524v-5.539h14.252v-6.8h-24Z" transform="translate(-625.942 -358.795)" fill="#1a4985"/>
      <path id="Path_63" data-name="Path 63" d="M610.988,475.6a3.671,3.671,0,0,1-2.774,1.165,3.386,3.386,0,0,1-2.613-1.156,5.267,5.267,0,0,1-1.058-3.639,5.578,5.578,0,0,1,1.026-3.781,3.3,3.3,0,0,1,2.539-1.13,3.794,3.794,0,0,1,2.859,1.179,4.962,4.962,0,0,1,1.13,3.561,5.413,5.413,0,0,1-1.108,3.8m1.045-21.68v9.758a8.4,8.4,0,0,0-2.933-1.845,10.473,10.473,0,0,0-3.678-.618,9.319,9.319,0,0,0-6.854,2.683q-2.7,2.685-2.7,7.746a12.214,12.214,0,0,0,2.441,7.689,8.4,8.4,0,0,0,7.07,3.164,9.745,9.745,0,0,0,4.178-.885,10.643,10.643,0,0,0,3.113-2.6v3.022h8.107V453.92Z" transform="translate(-493.503 -375.939)" fill="#1a4985"/>
      <rect id="Rectangle_35" data-name="Rectangle 35" width="8.712" height="28.121" transform="translate(91.095 77.981)" fill="#1a4985"/>
      <path id="Path_64" data-name="Path 64" d="M411.72,517.2h8.712v-6.818q0-4.883,1.34-6.664a3.1,3.1,0,0,1,2.639-1.266,7.47,7.47,0,0,1,2.429.574l2.687-5.576a9.972,9.972,0,0,0-4.2-1.075,5.5,5.5,0,0,0-3.077.819,8.133,8.133,0,0,0-2.419,2.987v-3.345h-8.112V517.2Z" transform="translate(-340.989 -411.096)" fill="#1a4985"/>
      <path id="Path_65" data-name="Path 65" d="M261.328,511.1a4.291,4.291,0,0,1-6.138-.017,7.164,7.164,0,0,1,.01-8.012,4.1,4.1,0,0,1,3.123-1.311,3.944,3.944,0,0,1,2.994,1.294,5.574,5.574,0,0,1,1.211,3.932,5.884,5.884,0,0,1-1.2,4.114m7.121-11.18q-3.471-3.546-10.263-3.549-5.947,0-9.435,3.02a10.087,10.087,0,0,0,.637,15.771,14.465,14.465,0,0,0,8.818,2.493q6.112,0,9.571-3a10.272,10.272,0,0,0,.672-14.731" transform="translate(-203.126 -411.096)" fill="#1a4985"/>
      <path id="Path_66" data-name="Path 66" d="M6.99,464.045H16.5L21.988,444.1,27.5,464.045h9.516L43.94,432.37h-9.17l-3.35,17.643L26.547,432.37H17.41l-4.855,17.648L9.21,432.37H0Z" transform="translate(0 -358.091)" fill="#1a4985"/>
      <path id="Path_67" data-name="Path 67" d="M1017.53,280.692s21.588-19.572,34.632-23.244c10.533-2.962,16.829,1.235,18.332,8.911,2.24,11.448-5.753,22.211-5.753,22.211s7.865-18.415-2.125-23.244c-7.138-3.451-17.415.644-21.919,2.5-4.6,1.89-23.166,12.869-23.166,12.869" transform="translate(-842.725 -212.429)" fill="#58ab47"/>
      <path id="Path_68" data-name="Path 68" d="M941.327,43.332s10.723,14.333.993,24.767c-8.38,8.985-28.783,6.609-28.783,6.609s.2-30.5,34.325-33.62c8.543-.782,27.765-.376,36.078,21.648,7.8,20.669-7.023,41.34-7.023,41.34s6.009-15.345-1.364-20.376c-13.417-9.167-47,15.111-47,15.111s30.371-16.1,42.51-9.457c8.679,4.747,1.95,21.158,1.95,21.158S996.586,89.2,987.17,58.931c-3.314-10.662-15.9-29.171-41.067-23.888-38.1,8-34.517,41.148-34.517,41.148s18.43,5.36,28.6-1.366c8.3-5.489,9.636-10.162,8.744-16.733-1.46-10.765-7.605-14.761-7.605-14.761" transform="translate(-754.907 -28.253)" fill="#1a4985"/>
      <path id="Path_69" data-name="Path 69" d="M1155.152,153.758c2.34-1.11,2.6-5.461.584-9.722s-5.549-6.812-7.889-5.7-2.6,5.461-.586,9.722,5.551,6.812,7.89,5.7" transform="translate(-949.045 -114.353)" fill="#58ab47"/>
      <path id="Path_70" data-name="Path 70" d="M913.952,49.774s10.29,3.058,24.182.253c10.139-2.048,22.309-6.724,29.7-13.553,14.138-13.065,10.373-35,10.373-35s-.29-2.711,1.464-.782c1.328,1.46,6.463,16.408-2.553,31.785-5.834,9.949-19.327,16.247-32.684,19.014-16.551,3.434-29.269.256-30.479-.155-1.268-.426-2.048-1.89,0-1.56" transform="translate(-755.898 0.004)" fill="#58ab47"/>
      <path id="Path_71" data-name="Path 71" d="M987.436,169.394a3.277,3.277,0,1,0-3.276-3.276,3.278,3.278,0,0,0,3.276,3.276" transform="translate(-815.087 -134.864)" fill="#1a4985"/>
    </g>
  </g>
</svg>
